<?xml version="1.0" encoding="UTF-8" standalone="no"?>
<svg
   xmlns:dc="http://purl.org/dc/elements/1.1/"
   xmlns:cc="http://creativecommons.org/ns#"
   xmlns:rdf="http://www.w3.org/1999/02/22-rdf-syntax-ns#"
   xmlns:svg="http://www.w3.org/2000/svg"
   xmlns="http://www.w3.org/2000/svg"
   xmlns:sodipodi="http://sodipodi.sourceforge.net/DTD/sodipodi-0.dtd"
   xmlns:inkscape="http://www.inkscape.org/namespaces/inkscape"
   version="1.0"
   width="200px"
   height="200px"
   viewBox="0 0 200 200"
   preserveAspectRatio="xMidYMid meet"
   id="svg90"
   sodipodi:docname="26100311.svg"
   inkscape:version="1.0.2 (e86c8708, 2021-01-15)"
   inkscape:export-filename="/Users/robertwoods/Downloads/26100311.png"
   inkscape:export-xdpi="144"
   inkscape:export-ydpi="144">
  <metadata
     id="metadata96">
    <rdf:RDF>
      <cc:Work
         rdf:about="">
        <dc:format>image/svg+xml</dc:format>
        <dc:type
           rdf:resource="http://purl.org/dc/dcmitype/StillImage" />
      </cc:Work>
    </rdf:RDF>
  </metadata>
  <defs
     id="defs94" />
  <sodipodi:namedview
     pagecolor="#ffffff"
     bordercolor="#666666"
     borderopacity="1"
     objecttolerance="10"
     gridtolerance="10"
     guidetolerance="10"
     inkscape:pageopacity="0"
     inkscape:pageshadow="2"
     inkscape:window-width="1440"
     inkscape:window-height="847"
     id="namedview92"
     showgrid="false"
     inkscape:zoom="1.6503181"
     inkscape:cx="31.52153"
     inkscape:cy="117.25345"
     inkscape:window-x="0"
     inkscape:window-y="25"
     inkscape:window-maximized="0"
     inkscape:current-layer="svg90"
     inkscape:document-rotation="0" />
  <g
     fill="#000000"
     id="g74">
    <path
       d="M0 100 l0 -100 100 0 100 0 0 100 0 100 -100 0 -100 0 0 -100z m29.7 72.8 l-0.4 -3.3 0 6.5 0 6.5 0.4 -3.2 c0.2 -1.8 0.2 -4.8 0 -6.5z"
       id="path72" />
  </g>
  <g
     fill="#ffffff"
     id="g88">
    <path
       d="M0 100 l0 -100 100 0 100 0 0 100 0 100 -100 0 -100 0 0 -100z m22.8 81.8 l1.2 -1.2 0 -2.8 0 -2.8 -1.2 -0.1 -1.3 -0.1 1.3 -0.5 1.2 -0.5 0 -3.2 0 -3.3 -2.3 -1.2 -2.3 -1.2 -4.5 0.3 -4.4 0.3 -0.3 8.8 -0.3 8.7 5.9 0 5.8 0 1.2 -1.2z m7 -6.5 l-0.3 -7.8 -2 0 -2 0 -0.3 7.8 -0.3 7.7 2.6 0 2.6 0 -0.3 -7.7z m7.2 2.7 l0 -5 -3 0 -3 0 0 1.5 0 1.5 1 0 1 0 0 3.5 0 3.5 2 0 2 0 0 -5z m6 1.5 l0 -3.5 1.5 0 1.5 0 0 3.5 0 3.5 2 0 2 0 0 -3.9 0 -3.9 -1.4 -1.1 -1.5 -1.2 -4.3 0.3 -4.3 0.3 -0.3 4.8 -0.3 4.7 2.5 0 2.6 0 0 -3.5z m21 -4.5 l0 -8 -2 0 -2 0 0 3 0 3 -2.6 0 -2.5 0 -1.5 1.4 -1.4 1.5 0 2.1 0 2.1 1.3 1.4 1.2 1.4 4.8 0.1 4.7 0 0 -8z m12.4 6.4 l0.6 -1.7 -1.1 -1.3 -1.1 -1.3 -3.6 -0.4 -3.7 -0.4 4.8 -0.1 4.7 -0.2 0 -1.5 0 -1.5 -4.2 0 -4.3 0.1 -1.9 1.4 -1.8 1.4 1.5 1.5 1.6 1.6 3.5 0 3.6 0 0 1 0 1 -5 0 -5 0 0 1 0 1 5.4 0 5.4 0 0.6 -1.6z m8.6 -3.4 l0 -5 -3.1 0 -3.1 0 0.6 2.3 c0.3 1.2 0.6 3.4 0.6 5 l0 2.7 2.5 0 2.5 0 0 -5z m13 -3 l0 -8 -2 0 -2 0 0 3 0 3 -2.6 0 -2.5 0 -1.5 1.4 -1.4 1.5 0 2.1 0 2.1 1.3 1.4 1.2 1.4 4.8 0.1 4.7 0 0 -8z m14 7 l0 -1 -4 0 -4 0 0 -1 0 -1 2.6 0 2.5 0 1.5 -1.5 1.5 -1.5 -1.5 -1.5 -1.5 -1.5 -3.1 0 -3.1 0 -1.5 1.4 -1.4 1.5 0 2.3 0 2.4 1.2 1.2 1.2 1.2 4.8 0 4.8 0 0 -1z m20.6 -0.4 l1.4 -1.5 0 -3.5 0 -3.6 -5 0 -5 0 0 1.5 0 1.5 3 0 3 0 0 1.5 0 1.5 -3.5 0 -3.5 0 0 -5.5 0 -5.5 3.5 0 3.5 0 0 1 0 1 2 0 2 0 0 -1.1 c0 -0.6 -0.6 -1.7 -1.4 -2.5 l-1.5 -1.4 -3.7 0 -3.8 0 -2.8 2.7 -2.8 2.7 0 4 0 4 2.3 2.3 2.2 2.2 4.3 0 4.3 0.1 1.5 -1.4z m11.4 0.4 l0 -1 -3 0 -3 0 0 -1 0 -1 2.5 0 2.5 0 1.2 2 1.3 2 1.2 0 1.3 0 0 -3.6 0 -3.5 -1.4 -1.5 -1.5 -1.4 -4.5 0 -4.6 0 0 1.5 0 1.5 4.3 0.1 4.2 0.2 -2.9 0.4 -2.9 0.5 -1.5 1.4 -1.4 1.5 1.2 1.4 1.2 1.5 2.9 0 2.9 0 0 -1z m9 -2.5 l0 -3.5 1 0 1 0 0 3.5 0 3.5 2 0 2 0 0.2 -3.7 0.1 -3.8 0.4 3.8 0.4 3.7 2.5 0 2.4 0 0 -3.3 0 -3.4 -2.1 -1.9 -2 -1.8 -2 1.2 -1.9 1.2 0 -1 0 -1 -2.6 0 -2.5 0 -1.5 1.4 -1.4 1.5 0 3.5 0 3.6 2 0 2 0 0 -3.5z m25 2.5 l0 -1 -4.1 0 -4 0 0.6 -1 0.6 -1 2.5 0 2.4 0 0 -0.9 0 -1 -2.7 -0.4 -2.8 -0.4 3.8 0.2 c4.1 0.3 4.4 0 2.3 -2.1 l-1.5 -1.4 -3.1 0 -3.1 0 -1.5 1.4 -1.4 1.5 0 2.1 0 2.1 1.3 1.4 1.2 1.4 4.8 0.1 4.7 0 0 -1z m12 -0.5 l1.2 -1.4 -1.5 -1.5 -1.4 -1.5 -3.4 -0.4 -3.4 -0.4 4.8 -0.1 4.7 -0.2 0 -1.5 0 -1.5 -4.6 0 -4.5 0 -1.5 1.5 -1.5 1.5 1.5 1.5 1.5 1.5 3.5 0 3.6 0 0 1 0 1 -5 0 -5 0 0 1 0 1 4.9 0 4.9 0 1.2 -1.5z m-153.2 -12.3 l0.3 -2.2 -2 0 -2.1 0 0 2.6 0 2.5 1.8 -0.3 1.7 -0.3 0.3 -2.3z m48 0.5 l0.3 -1.7 -1.6 -0.6 -1.6 -0.7 -1.1 1.1 -1.1 1.1 0.7 1.6 0.6 1.6 1.7 -0.3 1.8 -0.3 0.3 -1.8z m39.2 -27.6 l0 -2 4.3 -0.3 4.2 -0.3 0.3 -2.2 0.3 -2.3 2 0 1.9 0 0 -2 0 -2 1.9 0 2 0 0.3 -2.2 0.3 -2.3 1.3 -0.1 c0.6 -0.1 1.7 -0.2 2.2 -0.3 l1.1 -0.1 -0.3 -1.7 -0.3 -1.8 2.3 -0.3 2.2 -0.3 0 -2 0 -1.9 2 0 2 0 0 -2 0 -2 2.1 0 2.1 0 0.5 -1.9 0.5 -1.9 1.9 -0.5 1.9 -0.5 0 -23.6 0 -23.6 -2 0 -2 0 0 -1.9 0 -2 -2.2 -0.3 -2.3 -0.3 -0.3 -2.2 -0.3 -2.3 -2 0 -1.9 0 0 -1.6 0 -1.6 -1.9 -0.5 -1.9 -0.5 -0.5 -1.9 -0.5 -1.9 -2.1 0 -2.1 0 0 -2.5 0 -2.5 -2 0 -2 0 0 -2 0 -2 -2 0 -2 0 0 -2 0 -2 -2.5 0 -2.5 0 0 -1.9 0 -1.9 -2 -0.5 -2 -0.5 0 -2.1 0 -2.1 -23.7 0.2 -23.8 0.3 -0.3 2.3 -0.3 2.2 -2 0 -1.9 0 0 2 0 2 -2 0 -2 0 0 2 0 2 -2.1 0 -2.1 0 -0.5 1.9 -0.5 1.9 -1.9 0.5 -1.9 0.5 0 2.1 0 2.1 -2 0 -2 0 0 2 0 2 -2 0 -2 0 0 1.9 0 2 -2.2 0.3 -2.3 0.3 -0.3 2.3 -0.3 2.2 -2 0 -1.9 0 0 1.9 0 2 -2 0.3 -2.1 0.3 0 22.8 c0 12.5 0.1 23.2 0.1 23.8 l0 1.1 2 -0.5 2 -0.5 0 2.4 0 2.4 1.9 0 1.9 0 0.5 2 0.5 2 2.1 0 2.1 0 0 2 0 2 2 0 2 0 0 2.1 0 2.1 2 0.5 2 0.5 0 1.9 0 1.9 2 0 2 0 0 2 0 2 2 0 2 0 1 2.5 1 2.5 3.4 0 3.4 0 0.5 2 0.5 2 23.6 0 23.6 0 0 -1.9z"
       id="path76" />
    <path
       d="M14 178.5 l0 -2.5 3 0 3 0 0 2.5 0 2.5 -3 0 -3 0 0 -2.5z"
       id="path78" />
    <path
       d="M14 170.5 l0 -2.5 3 0 3 0 0 2.5 0 2.5 -3 0 -3 0 0 -2.5z"
       id="path80" />
    <path
       d="M56 178.5 l0 -2.5 2 0 2 0 0 2.5 0 2.5 -2 0 -2 0 0 -2.5z"
       id="path82" />
    <path
       d="M91 178.5 l0 -2.5 1.5 0 1.5 0 0 2.5 0 2.5 -1.5 0 -1.5 0 0 -2.5z"
       id="path84" />
    <path
       d="M77 132.9 l0 -2.1 -1.9 -0.5 -1.9 -0.5 -0.5 -1.9 -0.5 -1.9 -2.1 0 -2.1 0 0 -2 0 -2 -1.9 0 -2 0 -0.3 -2.2 -0.3 -2.3 -1.7 0.3 -1.7 0.3 -0.3 -2.3 -0.3 -2.3 -2.2 -0.3 -2.3 -0.3 0 -2 0 -1.9 -2 0 -2 0 0 -2 0 -2 -2 0 -2 0 0 -19 0 -19 2 0 2 0 0 -2.1 0 -2.1 2 -0.5 2 -0.5 0 -1.9 0 -1.9 2.5 0 2.5 0 0 -2 0 -2 2 0 2 0 0 -2 0 -2 2 0 2 0 0 -2.5 0 -2.5 2.5 0 2.5 0 0 -2 0 -2 2 0 2 0 0 -2 0 -2 1.5 0 1.5 0 1 -2.5 1 -2.5 18.4 0 18.5 0 0.3 2.2 0.3 2.2 2 0.6 2 0.5 0 1.5 0 1.5 2.3 0.3 2.2 0.3 0 2 0 1.9 2 0 2 0 0 2.1 0 2.1 1.9 0.5 1.9 0.5 0.5 1.9 0.5 1.9 2.1 0 2.1 0 0 2 0 2 2 0 2 0 0 2 0 2 1.9 0 2 0 0.3 2.3 0.3 2.2 2.3 0.3 2.2 0.3 -0.2 18.7 -0.3 18.7 -2.2 0.3 -2.3 0.3 0 2 0 1.9 -2 0 -2 0 0 2 0 2 -1.9 0 -2 0 -0.3 2.3 -0.3 2.2 -2.2 0.3 -2.3 0.3 0 2 0 1.9 -2 0 -2 0 0 2 0 2 -2 0 -2 0 0 1.9 0 1.9 -2.5 0.6 -2.6 0.7 0.3 1.7 0.3 1.7 -23.2 0.3 -23.3 0.2 0 -2.1z m20.8 -27.1 l1.1 -1.1 1.6 1.3 1.5 1.2 1.3 -1 1.3 -1.1 2.1 0.5 2 0.6 6.7 -7.7 c3.6 -4.1 6.6 -7.9 6.6 -8.3 0 -0.5 -0.5 -1.3 -1.2 -2 l-1.1 -1.1 1.3 -1.6 1.3 -1.6 -1.9 -1.3 -1.8 -1.4 1.3 -1.6 1.3 -1.6 -1.2 -1.6 -1.3 -1.5 -2.6 0.3 -2.6 0.3 0.3 2.2 0.3 2.1 -1.1 0.7 -1.1 0.7 1.5 1.6 1.4 1.7 -2.3 2.9 -2.4 3 -1.5 -1.4 -1.6 -1.3 -1.8 1.5 -1.7 1.5 -1.4 -0.5 -1.3 -0.4 -5.8 2.7 -5.8 2.8 -1.3 2.3 -1.2 2.4 3.9 3.5 c4.2 3.7 5.4 4.1 7.2 2.3z m-6.7 -13.8 l8 -4.1 -0.2 -1.2 c-0.1 -0.7 0.2 -2.1 0.6 -3.1 l0.9 -2 -1.2 -0.4 c-1.7 -0.5 -1.5 -1.6 0.9 -4.6 l2.1 -2.7 1.5 1.3 1.5 1.2 1.8 -1.2 1.9 -1.2 1.3 0.5 1.4 0.5 1.8 -1.3 1.8 -1.3 -5.1 -4.3 -5.1 -4.3 -1.5 1.2 -1.4 1.1 -1.9 -1 -2 -1.1 -1.2 1.5 -1.3 1.5 -1.5 -1.2 -1.5 -1.3 -6.3 7 c-3.5 3.9 -6.6 7.8 -7 8.9 l-0.6 1.8 1.3 0.8 1.3 0.8 -1.3 1.6 -1.3 1.6 1.2 1.5 1.2 1.4 -0.7 2.2 -0.7 2.1 1.3 0.9 c1.8 1.1 0.9 1.4 10 -3.1z"
       id="path86" />
  </g>
</svg>
